<?xml version="1.0" encoding="utf-8"?>
<!-- Generator: Adobe Illustrator 15.0.0, SVG Export Plug-In . SVG Version: 6.00 Build 0)  -->
<!DOCTYPE svg PUBLIC "-//W3C//DTD SVG 1.1//EN" "http://www.w3.org/Graphics/SVG/1.1/DTD/svg11.dtd">
<svg version="1.1" id="Laag_1" xmlns="http://www.w3.org/2000/svg" xmlns:xlink="http://www.w3.org/1999/xlink" x="0px" y="0px"
	 width="283.46px" height="283.46px" viewBox="0 0 283.46 283.46" enable-background="new 0 0 283.46 283.46" xml:space="preserve">
<g>
	<path fill="none" d="M81.34,126.627h0.007c0.206,11.163,2.17,12.28,12.387,12.666h18.882v-12.666v-12.666H93.734
		C83.422,113.961,81.481,117.019,81.34,126.627z"/>
	<path fill="#E4006D" d="M139.429,151.924c-0.006,0-0.012,0.001-0.018,0.001c-5.836,0-10.562-4.729-10.562-10.567
		c0-5.834,4.725-10.563,10.562-10.563c0.009,0,0.018,0.001,0.027,0.001l0.018-40.759H88.219c-25.641,0-35.293,12.485-35.293,37.162
		c0,14.91,3.258,26.583,15.231,32.19l-15.031,33.993H80.99l12.889-30.331h18.737v30.373h27.57v-0.136h-0.776L139.429,151.924z
		 M112.616,126.627v12.666H93.734c-10.216-0.386-12.181-1.503-12.387-12.666H81.34c0.141-9.608,2.082-12.666,12.394-12.666h18.882
		V126.627z"/>
	<path fill="#1A1A18" d="M202.979,90.037v38.854h-35.967V90.037h-26.826v40.797c5.471,0.399,9.789,4.952,9.789,10.524
		c0,5.577-4.318,10.129-9.789,10.528v41.402h26.812l0.014-40.418h35.967v40.509h27.556V90.037H202.979z"/>
	<path fill="#E4006D" d="M140.187,130.833V90.037h-0.73l-0.018,40.759C139.69,130.796,139.938,130.815,140.187,130.833z"/>
	<path fill="#1A1A18" d="M140.187,130.833V90.037h-0.73l-0.018,40.759C139.69,130.796,139.938,130.815,140.187,130.833z"/>
	<path fill="#E4006D" d="M139.429,151.924l-0.018,41.364h0.776v-41.402C139.936,151.904,139.685,151.924,139.429,151.924z"/>
	<path fill="#1A1A18" d="M139.429,151.924l-0.018,41.364h0.776v-41.402C139.936,151.904,139.685,151.924,139.429,151.924z"/>
</g>
</svg>
